<svg width="4800" height="720" viewBox="0 0 4800 720" fill="none" xmlns="http://www.w3.org/2000/svg">
<path d="M4686.53 708.214H4601.04C4598.91 708.214 4596.77 707.143 4595.7 705L4359.55 273.214C4354.21 262.5 4344.59 257.143 4332.84 257.143C4312.54 257.143 4294.37 273.214 4291.17 294.643L4229.19 698.571C4228.12 703.929 4223.85 708.214 4219.57 708.214H4151.19C4146.91 708.214 4143.71 703.929 4144.78 698.571L4247.36 21.4285C4248.43 16.0714 4252.7 11.7856 4256.97 11.7856H4343.53C4345.66 11.7856 4347.8 12.8571 4348.87 14.9999L4575.4 429.643C4581.81 441.428 4593.56 447.857 4607.46 447.857C4630.96 447.857 4652.33 428.571 4656.61 403.928L4715.38 21.4285C4715.38 16.0714 4719.65 11.7856 4723.93 11.7856H4793.38C4797.66 11.7856 4800.86 16.0714 4799.79 21.4285L4696.14 698.571C4695.08 703.929 4690.8 708.214 4686.53 708.214Z" fill="#0B0B0B"/>
<path d="M3986.34 708.214H3900.86C3898.72 708.214 3896.58 707.143 3895.51 705L3659.37 273.214C3654.02 262.5 3644.41 257.143 3632.65 257.143C3612.35 257.143 3594.19 273.214 3590.98 294.643L3529 698.571C3527.94 703.929 3523.66 708.214 3519.39 708.214H3451C3446.73 708.214 3443.52 703.929 3444.59 698.571L3547.17 21.4285C3548.24 16.0714 3552.51 11.7856 3556.79 11.7856H3643.34C3645.48 11.7856 3647.61 12.8571 3648.68 14.9999L3875.21 429.643C3881.62 441.428 3893.38 447.857 3907.27 447.857C3930.78 447.857 3952.15 428.571 3956.42 403.928L4015.19 21.4285C4015.19 16.0714 4019.47 11.7856 4023.74 11.7856H4093.2C4097.47 11.7856 4100.67 16.0714 4099.61 21.4285L3995.96 698.571C3994.89 703.929 3990.61 708.214 3986.34 708.214Z" fill="#0B0B0B"/>
<path d="M3041.5 720C2888.7 720 2791.46 600 2816.04 439.286L2880.15 21.4285C2880.15 16.0714 2884.42 11.7856 2888.7 11.7856H2958.15C2962.43 11.7856 2965.63 16.0714 2964.56 21.4285L2901.52 438.214C2887.63 523.928 2947.47 573.214 3063.94 573.214C3181.48 573.214 3256.28 523.928 3269.1 438.214L3333.21 21.4285C3334.28 16.0714 3337.48 11.7856 3342.83 11.7856H3411.21C3415.49 11.7856 3418.69 16.0714 3417.62 21.4285L3353.51 439.286C3330 600 3195.37 720 3041.5 720Z" fill="#0B0B0B"/>
<path d="M2721.33 360C2690.34 565.714 2518.31 720 2322.76 720C2126.15 720 2002.2 565.714 2033.19 360C2065.24 155.357 2236.21 0 2431.75 0C2628.37 0 2752.32 155.357 2721.33 360ZM2414.66 118.929C2268.27 118.929 2142.18 222.857 2120.81 360C2101.57 489.643 2189.19 573.214 2345.2 573.214C2501.21 573.214 2614.47 489.643 2634.78 360C2656.15 222.857 2561.05 118.929 2414.66 118.929Z" fill="#0B0B0B"/>
<path d="M1888.21 708.214H1802.72C1799.52 708.214 1797.38 707.143 1796.31 705L1683.05 493.928C1673.43 477.857 1657.4 468.214 1637.1 468.214H1556.96C1523.83 468.214 1491.78 496.071 1486.43 531.429L1460.79 698.571C1459.72 703.929 1455.45 708.214 1451.17 708.214H1382.79C1378.51 708.214 1375.31 703.929 1376.37 698.571L1478.95 21.4285C1480.02 16.0714 1484.3 11.7856 1488.57 11.7856H1777.08C1901.03 11.7856 1980.1 109.286 1960.87 238.928C1946.98 327.857 1892.48 403.928 1815.55 442.5C1804.86 447.857 1796.31 457.5 1790.97 468.214C1786.69 478.929 1787.76 490.714 1792.04 500.357L1895.69 692.143C1896.75 695.357 1897.82 697.5 1896.75 700.714C1895.69 706.071 1891.41 708.214 1888.21 708.214ZM1609.32 128.571C1575.12 128.571 1543.07 157.5 1537.72 192.857L1523.83 286.071C1518.49 322.5 1542 350.357 1575.12 350.357H1723.65C1802.72 350.357 1863.63 305.357 1874.31 238.928C1883.93 174.643 1835.85 128.571 1757.84 128.571H1609.32Z" fill="#0B0B0B"/>
<path d="M1277.35 703.929H1204.69C1201.49 703.929 1198.28 701.786 1198.28 698.571C1197.21 697.5 1197.21 697.5 1197.21 696.429L1169.43 618.214C1160.88 585 1133.1 563.571 1098.9 563.571H870.237C834.975 563.571 800.782 585 782.616 618.214L731.326 696.429C730.258 697.5 730.258 697.5 730.258 698.571C728.121 701.786 724.915 703.929 721.709 703.929H642.637C640.5 703.929 638.363 701.786 637.295 699.643C636.226 697.5 636.226 693.214 637.295 690L1003.8 12.8571C1004.87 9.64283 1008.08 7.5 1011.28 7.5H1122.41C1125.62 7.5 1127.76 9.64283 1128.82 12.8571L1286.97 690C1288.04 693.214 1286.97 697.5 1284.83 699.643C1282.69 701.786 1280.56 703.929 1277.35 703.929ZM1039.07 199.286C1018.76 199.286 1000.6 211.071 989.914 230.357L917.253 361.071C908.704 376.071 907.636 393.214 915.116 407.143C921.527 420 934.349 427.5 949.309 427.5H1060.44C1075.4 427.5 1090.36 420 1101.04 407.143C1111.73 393.214 1117.07 376.071 1112.8 361.071L1079.67 230.357C1075.4 211.071 1059.37 199.286 1039.07 199.286Z" fill="#0B0B0B"/>
<path d="M535.34 703.929H466.953C461.611 703.929 459.473 699.643 460.542 694.286L493.667 472.5C499.01 440.357 477.639 414.643 447.719 414.643H182.721C152.802 414.643 123.951 440.357 118.608 472.5L85.4834 694.286C84.4149 699.643 80.1407 703.929 75.8666 703.929H6.41126C2.13709 703.929 0 699.643 0 694.286L103.649 16.0714C104.717 10.7142 108.991 7.5 113.266 7.5H181.652C185.926 7.5 189.132 10.7142 188.064 16.0714L154.939 234.643C150.665 265.714 170.967 291.429 201.955 291.429H465.885C496.872 291.429 525.723 265.714 529.997 234.643L563.122 16.0714C564.191 10.7142 568.465 7.5 572.739 7.5H641.126C645.4 7.5 648.606 10.7142 647.537 16.0714L544.957 694.286C543.888 699.643 539.614 703.929 535.34 703.929Z" fill="#0B0B0B"/>
</svg>
